<svg width="32" height="32" viewBox="0 0 32 32" fill="none" xmlns="http://www.w3.org/2000/svg">
<g clip-path="url(#clip0_12_2790)">
<path d="M18.6667 2.6665H5.33341C3.85341 2.6665 2.66675 3.8665 2.66675 5.33317V18.6665H5.33341V5.33317H18.6667V2.6665ZM24.0001 7.99984H10.6667C9.18675 7.99984 8.00008 9.19984 8.00008 10.6665V23.9998H10.6667V10.6665H24.0001V7.99984ZM26.6667 13.3332H16.0001C14.5201 13.3332 13.3334 14.5332 13.3334 15.9998V26.6665C13.3334 28.1332 14.5201 29.3332 16.0001 29.3332H26.6667C28.1334 29.3332 29.3334 28.1332 29.3334 26.6665V15.9998C29.3334 14.5332 28.1334 13.3332 26.6667 13.3332Z" fill="black"/>
</g>
<defs>
<clipPath id="clip0_12_2790">
<rect width="32" height="32" fill="white"/>
</clipPath>
</defs>
</svg>
