<svg width="30" height="30" viewBox="0 0 30 30" fill="none" xmlns="http://www.w3.org/2000/svg">
<path d="M23.6575 22.3833H22.1127L22.1199 21.4791C22.1199 21.0773 22.4473 20.7486 22.8476 20.7486H22.9461C23.347 20.7486 23.6754 21.0773 23.6754 21.4791L23.6575 22.3833ZM17.8636 20.4457C17.4718 20.4457 17.1512 20.7111 17.1512 21.036V25.4333C17.1512 25.7576 17.4718 26.0223 17.8636 26.0223C18.257 26.0223 18.5779 25.7576 18.5779 25.4333V21.036C18.5779 20.7108 18.257 20.4457 17.8636 20.4457ZM27.2727 17.986V26.3514C27.2727 28.3579 25.5458 29.9999 23.4355 29.9999H7.65559C5.54437 29.9999 3.81812 28.3579 3.81812 26.3514V17.986C3.81812 15.9794 5.54437 14.3372 7.65559 14.3372H23.4355C25.5458 14.3372 27.2727 15.9794 27.2727 17.986ZM8.70823 27.2596L8.70698 18.4477L10.6631 18.4483V17.1426L5.44868 17.1348V18.4184L7.07642 18.4231V27.2596H8.70823ZM14.5719 19.7603H12.941V24.4658C12.941 25.1465 12.982 25.4869 12.9385 25.607C12.8059 25.9719 12.2098 26.3592 11.9775 25.6464C11.9381 25.5216 11.9728 25.145 11.9722 24.4983L11.9656 19.7603H10.3438L10.3488 24.4236C10.3501 25.1383 10.3329 25.6716 10.3544 25.9139C10.3941 26.3416 10.3801 26.8405 10.7738 27.1251C11.5075 27.658 12.9138 27.0456 13.2656 26.2842L13.2625 27.2558L14.5722 27.2574V19.7603H14.5719ZM19.7891 25.1487L19.7857 21.2324C19.7844 19.7398 18.6764 18.8457 17.1722 20.0534L17.1788 17.1417L15.5495 17.1442L15.5416 27.1944L16.881 27.1745L17.003 26.5486C18.7155 28.1316 19.7916 27.0472 19.7891 25.1487ZM24.8931 24.6297L23.67 24.6363C23.6694 24.6852 23.6679 24.7416 23.6672 24.803V25.4907C23.6672 25.8585 23.3654 26.1582 22.9989 26.1582H22.7594C22.3922 26.1582 22.0908 25.8585 22.0908 25.4907V25.4144V24.658V23.682H24.8909V22.62C24.8909 21.8437 24.8712 21.0678 24.8074 20.6241C24.6073 19.2204 22.6521 18.9976 21.6645 19.7162C21.3543 19.9405 21.1176 20.2409 20.98 20.6446C20.8408 21.0483 20.772 21.5998 20.772 22.3004V24.6354C20.7723 28.5174 25.4513 27.9687 24.8931 24.6297ZM18.6204 11.9518C18.7046 12.1579 18.8353 12.3249 19.0126 12.451C19.1877 12.5751 19.4119 12.6375 19.68 12.6375C19.9151 12.6375 20.1234 12.5736 20.3048 12.4415C20.4855 12.3101 20.6378 12.1138 20.762 11.8519L20.7313 12.4967H22.5492V4.70581H21.1182V10.7693C21.1182 11.0977 20.8499 11.3665 20.5218 11.3665C20.1956 11.3665 19.9264 11.0977 19.9264 10.7693V4.70581H18.4328V9.96064C18.4328 10.63 18.4447 11.0763 18.4644 11.3026C18.4853 11.5273 18.5363 11.7428 18.6204 11.9518ZM13.1114 7.55162C13.1114 6.80377 13.1734 6.21979 13.2963 5.79875C13.4201 5.37929 13.6424 5.04207 13.9646 4.78775C14.2857 4.53216 14.697 4.40421 15.197 4.40421C15.6176 4.40421 15.9779 4.48741 16.279 4.65034C16.5815 4.81422 16.8144 5.02695 16.9764 5.28947C17.1412 5.55293 17.2532 5.82365 17.3129 6.10067C17.3739 6.38147 17.4039 6.80503 17.4039 7.3764V9.34673C17.4039 10.0694 17.3752 10.601 17.3195 10.9386C17.2641 11.277 17.1453 11.5909 16.9614 11.8853C16.7797 12.1765 16.5455 12.3942 16.2615 12.5332C15.9745 12.6735 15.6461 12.7422 15.2752 12.7422C14.8608 12.7422 14.5118 12.6845 14.2241 12.5641C13.9355 12.4444 13.7125 12.2638 13.5536 12.0239C13.3932 11.7838 13.2803 11.4913 13.2121 11.1503C13.1436 10.8097 13.1111 10.2972 13.1111 9.61429V7.55162H13.1114ZM14.5353 10.6464C14.5353 11.0876 14.8611 11.4478 15.258 11.4478C15.6552 11.4478 15.9795 11.0876 15.9795 10.6464V6.49902C15.9795 6.05844 15.6552 5.69822 15.258 5.69822C14.8611 5.69822 14.5353 6.05844 14.5353 6.49902V10.6464ZM9.50412 12.7406H11.2191L11.221 6.76532L13.2475 1.64663H11.3717L10.2944 5.44862L9.20172 1.63623H7.34537L9.50131 6.76816L9.50412 12.7406Z" fill="black"/>
</svg>
